<?xml version="1.0" standalone="no"?>
<!DOCTYPE svg PUBLIC "-//W3C//DTD SVG 20010904//EN"
 "http://www.w3.org/TR/2001/REC-SVG-20010904/DTD/svg10.dtd">
<svg version="1.0" xmlns="http://www.w3.org/2000/svg"
 width="418.000000pt" height="164.000000pt" viewBox="0 0 418.000000 164.000000"
 preserveAspectRatio="xMidYMid meet">

<g transform="translate(0.000000,164.000000) scale(0.100000,-0.100000)"
fill="#000000" stroke="none">
<path d="M3895 991 c-79 -36 -117 -111 -95 -190 21 -79 80 -123 165 -125 86
-1 153 56 103 88 -13 8 -25 6 -47 -7 -36 -21 -63 -22 -101 -2 -59 31 -69 107
-21 156 34 34 74 38 127 13 27 -13 37 -14 49 -4 27 23 17 47 -28 69 -53 26
-99 26 -152 2z"/>
<path d="M2594 985 c-12 -31 4 -45 50 -45 l45 0 3 -127 3 -128 35 0 35 0 3
127 3 127 47 3 c43 3 47 5 47 28 l0 25 -133 3 c-111 2 -133 0 -138 -13z"/>
<path d="M2900 840 l0 -161 33 3 c30 3 32 6 35 46 l3 42 57 0 c67 0 117 25
133 68 16 41 4 101 -25 131 -25 24 -34 26 -131 29 l-105 4 0 -162z m181 79
c14 -14 18 -27 13 -42 -10 -34 -19 -39 -73 -45 l-51 -5 0 57 0 56 45 0 c32 0
51 -6 66 -21z"/>
<path d="M3241 962 c-43 -84 -111 -246 -111 -263 0 -14 7 -19 30 -19 25 0 33
6 47 35 l17 35 71 0 71 0 13 -35 c10 -29 17 -35 42 -35 16 0 32 6 35 13 2 7
-24 78 -60 158 -65 143 -65 144 -100 147 -32 3 -37 0 -55 -36z m88 -139 c1 -9
-13 -13 -39 -13 -22 0 -40 2 -40 4 0 2 10 25 22 52 l21 49 18 -40 c10 -22 18
-46 18 -52z"/>
<path d="M3485 988 c-3 -8 -4 -79 -3 -158 l3 -145 35 0 35 0 3 63 3 62 69 0
69 0 3 -62 c3 -63 3 -63 36 -66 l32 -3 0 160 0 161 -35 0 -35 0 0 -60 0 -60
-70 0 -69 0 -3 58 c-3 56 -3 57 -36 60 -20 2 -34 -2 -37 -10z"/>
<path d="M2387 874 c-12 -12 -8 -51 7 -63 9 -8 43 -11 93 -9 l78 3 0 35 0 35
-85 3 c-47 1 -89 0 -93 -4z"/>
</g>
</svg>
